<mxfile host="Electron" agent="Mozilla/5.0 (Windows NT 10.0; Win64; x64) AppleWebKit/537.36 (KHTML, like Gecko) draw.io/28.1.2 Chrome/138.0.7204.243 Electron/37.4.0 Safari/537.36" version="28.1.2">
  <diagram id="k6mQFGGR0Au8-xu0tlzd" name="Seite-1">
    <mxGraphModel dx="1426" dy="841" grid="1" gridSize="10" guides="1" tooltips="1" connect="1" arrows="1" fold="1" page="1" pageScale="1" pageWidth="827" pageHeight="1169" math="0" shadow="0">
      <root>
        <mxCell id="0" />
        <mxCell id="1" parent="0" />
        <mxCell id="ZP4ImoMLboCizzw1mSM8-5" value="" style="edgeStyle=orthogonalEdgeStyle;rounded=0;orthogonalLoop=1;jettySize=auto;html=1;" edge="1" parent="1" source="ZP4ImoMLboCizzw1mSM8-2">
          <mxGeometry relative="1" as="geometry">
            <mxPoint x="400" y="150" as="targetPoint" />
          </mxGeometry>
        </mxCell>
        <mxCell id="ZP4ImoMLboCizzw1mSM8-2" value="Start" style="ellipse;whiteSpace=wrap;html=1;" vertex="1" parent="1">
          <mxGeometry x="340" y="40" width="120" height="80" as="geometry" />
        </mxCell>
        <mxCell id="ZP4ImoMLboCizzw1mSM8-17" value="" style="edgeStyle=orthogonalEdgeStyle;rounded=0;orthogonalLoop=1;jettySize=auto;html=1;" edge="1" parent="1" source="ZP4ImoMLboCizzw1mSM8-6" target="ZP4ImoMLboCizzw1mSM8-16">
          <mxGeometry relative="1" as="geometry" />
        </mxCell>
        <mxCell id="ZP4ImoMLboCizzw1mSM8-6" value="&lt;font style=&quot;color: rgb(0, 127, 255);&quot;&gt;result&lt;/font&gt;= Hello my name is &quot;&lt;font style=&quot;color: rgb(0, 127, 255);&quot;&gt;name&lt;/font&gt;&quot; and I am &quot;&lt;font style=&quot;color: rgb(0, 127, 255);&quot;&gt;age&lt;/font&gt;&quot; years old und I come from &quot;&lt;font style=&quot;color: rgb(0, 127, 255);&quot;&gt;country&lt;/font&gt;&quot;" style="shape=process;whiteSpace=wrap;html=1;backgroundOutline=1;" vertex="1" parent="1">
          <mxGeometry x="307.5" y="290" width="185" height="120" as="geometry" />
        </mxCell>
        <mxCell id="ZP4ImoMLboCizzw1mSM8-23" style="edgeStyle=orthogonalEdgeStyle;rounded=0;orthogonalLoop=1;jettySize=auto;html=1;exitX=0.5;exitY=1;exitDx=0;exitDy=0;" edge="1" parent="1" source="ZP4ImoMLboCizzw1mSM8-8">
          <mxGeometry relative="1" as="geometry">
            <mxPoint x="400" y="210" as="targetPoint" />
          </mxGeometry>
        </mxCell>
        <mxCell id="ZP4ImoMLboCizzw1mSM8-24" value="" style="edgeStyle=orthogonalEdgeStyle;rounded=0;orthogonalLoop=1;jettySize=auto;html=1;" edge="1" parent="1" source="ZP4ImoMLboCizzw1mSM8-8" target="ZP4ImoMLboCizzw1mSM8-6">
          <mxGeometry relative="1" as="geometry" />
        </mxCell>
        <mxCell id="ZP4ImoMLboCizzw1mSM8-8" value="defined variablen: &lt;font style=&quot;color: rgb(0, 127, 255);&quot;&gt;name&lt;/font&gt;:&quot;Ali&quot;&lt;div&gt;&lt;font style=&quot;color: rgb(51, 153, 255);&quot;&gt;country&lt;/font&gt;:&quot;iran&quot;&lt;/div&gt;&lt;div&gt;&lt;font style=&quot;color: rgb(0, 127, 255);&quot;&gt;age&lt;/font&gt;:&quot;48&quot;&lt;/div&gt;&lt;div&gt;&lt;font style=&quot;color: rgb(0, 127, 255);&quot;&gt;result&lt;/font&gt;: NULL&lt;/div&gt;" style="shape=process;whiteSpace=wrap;html=1;backgroundOutline=1;" vertex="1" parent="1">
          <mxGeometry x="320" y="150" width="160" height="90" as="geometry" />
        </mxCell>
        <mxCell id="ZP4ImoMLboCizzw1mSM8-10" value="Process: means when your app shall do somehting itself" style="shape=document;whiteSpace=wrap;html=1;boundedLbl=1;" vertex="1" parent="1">
          <mxGeometry x="20" y="150" width="120" height="80" as="geometry" />
        </mxCell>
        <mxCell id="ZP4ImoMLboCizzw1mSM8-11" value="" style="shape=flexArrow;endArrow=classic;html=1;rounded=0;" edge="1" parent="1">
          <mxGeometry width="50" height="50" relative="1" as="geometry">
            <mxPoint x="180" y="180" as="sourcePoint" />
            <mxPoint x="260" y="180" as="targetPoint" />
          </mxGeometry>
        </mxCell>
        <mxCell id="ZP4ImoMLboCizzw1mSM8-21" value="" style="edgeStyle=orthogonalEdgeStyle;rounded=0;orthogonalLoop=1;jettySize=auto;html=1;" edge="1" parent="1" source="ZP4ImoMLboCizzw1mSM8-16" target="ZP4ImoMLboCizzw1mSM8-20">
          <mxGeometry relative="1" as="geometry" />
        </mxCell>
        <mxCell id="ZP4ImoMLboCizzw1mSM8-22" value="" style="edgeStyle=orthogonalEdgeStyle;rounded=0;orthogonalLoop=1;jettySize=auto;html=1;" edge="1" parent="1" source="ZP4ImoMLboCizzw1mSM8-16" target="ZP4ImoMLboCizzw1mSM8-20">
          <mxGeometry relative="1" as="geometry" />
        </mxCell>
        <mxCell id="ZP4ImoMLboCizzw1mSM8-16" value="print: result" style="rounded=1;whiteSpace=wrap;html=1;" vertex="1" parent="1">
          <mxGeometry x="340" y="470" width="120" height="60" as="geometry" />
        </mxCell>
        <mxCell id="ZP4ImoMLboCizzw1mSM8-20" value="End" style="ellipse;whiteSpace=wrap;html=1;rounded=1;" vertex="1" parent="1">
          <mxGeometry x="335" y="585" width="130" height="60" as="geometry" />
        </mxCell>
      </root>
    </mxGraphModel>
  </diagram>
</mxfile>
